<svg width="48" height="48" viewBox="0 0 48 48" fill="none" xmlns="http://www.w3.org/2000/svg">
<path d="M38.296 5.942C37.9396 5.35105 37.437 4.8619 36.8365 4.52174C36.2361 4.18158 35.5581 4.00189 34.868 4H13.132C11.736 4 10.422 4.744 9.704 5.942L4.286 14.97C4.09851 15.2808 3.99961 15.637 4 16C4.00799 17.9304 4.71899 19.7918 6 21.236V38C6 40.206 7.794 42 10 42H38C40.206 42 42 40.206 42 38V21.236C43.281 19.7918 43.992 17.9304 44 16C44.0004 15.637 43.9015 15.2808 43.714 14.97L38.296 5.942ZM39.968 16.502C39.8446 17.4676 39.3737 18.3553 38.6434 18.999C37.9132 19.6428 36.9735 19.9986 36 20C33.794 20 32 18.206 32 16C32 15.864 31.95 15.744 31.922 15.616L31.962 15.608L30.44 8H34.868L39.968 16.502ZM21.638 8H26.36L27.986 16.13C27.916 18.274 26.16 20 24 20C21.84 20 20.084 18.274 20.014 16.13L21.638 8ZM13.132 8H17.56L16.04 15.608L16.08 15.616C16.05 15.744 16 15.864 16 16C16 18.206 14.206 20 12 20C11.0265 19.9986 10.0868 19.6428 9.35656 18.999C8.6263 18.3553 8.15545 17.4676 8.032 16.502L13.132 8ZM20 38V32H28V38H20ZM32 38V32C32 29.794 30.206 28 28 28H20C17.794 28 16 29.794 16 32V38H10V23.716C10.642 23.882 11.304 24 12 24C13.1356 24.0006 14.2583 23.7588 15.293 23.2908C16.3277 22.8227 17.2506 22.1393 18 21.286C19.466 22.95 21.614 24 24 24C26.386 24 28.534 22.95 30 21.286C30.7494 22.1393 31.6723 22.8227 32.707 23.2908C33.7417 23.7588 34.8644 24.0006 36 24C36.696 24 37.358 23.882 38 23.716V38H32Z" fill="#39B54A"/>
</svg>
