<svg width="40" height="40" viewBox="0 0 40 40" fill="none" xmlns="http://www.w3.org/2000/svg">
<path d="M19.9998 6.66663C21.7679 6.66663 23.4636 7.369 24.7139 8.61925C25.9641 9.86949 26.6665 11.5652 26.6665 13.3333C26.6665 15.1014 25.9641 16.7971 24.7139 18.0473C23.4636 19.2976 21.7679 20 19.9998 20C18.2317 20 16.536 19.2976 15.2858 18.0473C14.0355 16.7971 13.3332 15.1014 13.3332 13.3333C13.3332 11.5652 14.0355 9.86949 15.2858 8.61925C16.536 7.369 18.2317 6.66663 19.9998 6.66663ZM19.9998 9.99996C19.1158 9.99996 18.2679 10.3511 17.6428 10.9763C17.0177 11.6014 16.6665 12.4492 16.6665 13.3333C16.6665 14.2173 17.0177 15.0652 17.6428 15.6903C18.2679 16.3154 19.1158 16.6666 19.9998 16.6666C20.8839 16.6666 21.7317 16.3154 22.3569 15.6903C22.982 15.0652 23.3332 14.2173 23.3332 13.3333C23.3332 12.4492 22.982 11.6014 22.3569 10.9763C21.7317 10.3511 20.8839 9.99996 19.9998 9.99996ZM19.9998 21.6666C24.4498 21.6666 33.3332 23.8833 33.3332 28.3333V33.3333H6.6665V28.3333C6.6665 23.8833 15.5498 21.6666 19.9998 21.6666ZM19.9998 24.8333C15.0498 24.8333 9.83317 27.2666 9.83317 28.3333V30.1666H30.1665V28.3333C30.1665 27.2666 24.9498 24.8333 19.9998 24.8333Z" fill="#39B54A"/>
</svg>
