<svg width="64" height="64" viewBox="0 0 64 64" fill="none" xmlns="http://www.w3.org/2000/svg">
<path fill-rule="evenodd" clip-rule="evenodd" d="M40.5839 18.5842C40.7697 18.3979 40.9904 18.2501 41.2334 18.1493C41.4764 18.0485 41.7368 17.9966 41.9999 17.9966C42.263 17.9966 42.5235 18.0485 42.7664 18.1493C43.0094 18.2501 43.2301 18.3979 43.4159 18.5842L55.4159 30.5842C55.6022 30.7699 55.7499 30.9906 55.8508 31.2336C55.9516 31.4766 56.0035 31.7371 56.0035 32.0002C56.0035 32.2632 55.9516 32.5237 55.8508 32.7667C55.7499 33.0097 55.6022 33.2304 55.4159 33.4162L43.4159 45.4162C43.0404 45.7917 42.531 46.0027 41.9999 46.0027C41.4688 46.0027 40.9595 45.7917 40.5839 45.4162C40.2084 45.0406 39.9974 44.5313 39.9974 44.0002C39.9974 43.4691 40.2084 42.9597 40.5839 42.5842L51.1719 32.0002L40.5839 21.4162C40.3977 21.2304 40.2499 21.0097 40.1491 20.7667C40.0482 20.5237 39.9963 20.2632 39.9963 20.0002C39.9963 19.7371 40.0482 19.4766 40.1491 19.2336C40.2499 18.9906 40.3977 18.7699 40.5839 18.5842Z" fill="#39B54A"/>
<path fill-rule="evenodd" clip-rule="evenodd" d="M8 32C8 31.4696 8.21071 30.9609 8.58579 30.5858C8.96086 30.2107 9.46957 30 10 30H52C52.5304 30 53.0391 30.2107 53.4142 30.5858C53.7893 30.9609 54 31.4696 54 32C54 32.5304 53.7893 33.0391 53.4142 33.4142C53.0391 33.7893 52.5304 34 52 34H10C9.46957 34 8.96086 33.7893 8.58579 33.4142C8.21071 33.0391 8 32.5304 8 32Z" fill="#39B54A"/>
</svg>
