<svg width="48" height="48" viewBox="0 0 48 48" fill="none" xmlns="http://www.w3.org/2000/svg">
<path d="M9 31.5V30H6V31.5C6 34.2848 7.10625 36.9555 9.07538 38.9246C11.0445 40.8938 13.7152 42 16.5 42H21V39H16.5C14.5109 39 12.6032 38.2098 11.1967 36.8033C9.79018 35.3968 9 33.4891 9 31.5Z" fill="#39B54A"/>
<path d="M36 16.5V18H39V16.5C39 13.7152 37.8938 11.0445 35.9246 9.07538C33.9555 7.10625 31.2848 6 28.5 6H24V9H28.5C29.4849 9 30.4602 9.19399 31.3701 9.5709C32.2801 9.94781 33.1069 10.5003 33.8033 11.1967C34.4997 11.8931 35.0522 12.7199 35.4291 13.6299C35.806 14.5398 36 15.5151 36 16.5Z" fill="#39B54A"/>
<path d="M16.5 16.5H7.5C6.30653 16.5 5.16193 16.9741 4.31802 17.818C3.47411 18.6619 3 19.8065 3 21V24H6V21C6 20.6022 6.15804 20.2206 6.43934 19.9393C6.72064 19.658 7.10218 19.5 7.5 19.5H16.5C16.8978 19.5 17.2794 19.658 17.5607 19.9393C17.842 20.2206 18 20.6022 18 21V24H21V21C21 19.8065 20.5259 18.6619 19.682 17.818C18.8381 16.9741 17.6935 16.5 16.5 16.5Z" fill="#39B54A"/>
<path d="M12 15C13.1867 15 14.3467 14.6481 15.3334 13.9888C16.3201 13.3295 17.0892 12.3925 17.5433 11.2961C17.9974 10.1997 18.1162 8.99335 17.8847 7.82946C17.6532 6.66557 17.0818 5.59648 16.2426 4.75736C15.4035 3.91825 14.3344 3.3468 13.1705 3.11529C12.0067 2.88378 10.8003 3.0026 9.7039 3.45673C8.60754 3.91085 7.67047 4.67989 7.01118 5.66658C6.35189 6.65328 6 7.81331 6 9C6 10.5913 6.63214 12.1174 7.75736 13.2426C8.88258 14.3679 10.4087 15 12 15ZM12 6C12.5933 6 13.1734 6.17595 13.6667 6.50559C14.1601 6.83524 14.5446 7.30377 14.7716 7.85195C14.9987 8.40013 15.0581 9.00333 14.9424 9.58527C14.8266 10.1672 14.5409 10.7018 14.1213 11.1213C13.7018 11.5409 13.1672 11.8266 12.5853 11.9424C12.0033 12.0581 11.4001 11.9987 10.8519 11.7716C10.3038 11.5446 9.83524 11.1601 9.50559 10.6667C9.17595 10.1734 9 9.59335 9 9C9 8.20435 9.31607 7.44129 9.87868 6.87868C10.4413 6.31607 11.2044 6 12 6Z" fill="#39B54A"/>
<path d="M40.5 37.5H31.5C30.3065 37.5 29.1619 37.9741 28.318 38.818C27.4741 39.6619 27 40.8065 27 42V45H30V42C30 41.6022 30.158 41.2206 30.4393 40.9393C30.7206 40.658 31.1022 40.5 31.5 40.5H40.5C40.8978 40.5 41.2794 40.658 41.5607 40.9393C41.842 41.2206 42 41.6022 42 42V45H45V42C45 40.8065 44.5259 39.6619 43.682 38.818C42.8381 37.9741 41.6935 37.5 40.5 37.5Z" fill="#39B54A"/>
<path d="M30 30C30 31.1867 30.3519 32.3467 31.0112 33.3334C31.6705 34.3201 32.6075 35.0892 33.7039 35.5433C34.8003 35.9974 36.0067 36.1162 37.1705 35.8847C38.3344 35.6532 39.4035 35.0818 40.2426 34.2426C41.0818 33.4035 41.6532 32.3344 41.8847 31.1705C42.1162 30.0067 41.9974 28.8003 41.5433 27.7039C41.0892 26.6075 40.3201 25.6705 39.3334 25.0112C38.3467 24.3519 37.1867 24 36 24C34.4087 24 32.8826 24.6321 31.7574 25.7574C30.6321 26.8826 30 28.4087 30 30ZM39 30C39 30.5933 38.8241 31.1734 38.4944 31.6667C38.1648 32.1601 37.6962 32.5446 37.1481 32.7716C36.5999 32.9987 35.9967 33.0581 35.4147 32.9424C34.8328 32.8266 34.2982 32.5409 33.8787 32.1213C33.4591 31.7018 33.1734 31.1672 33.0576 30.5853C32.9419 30.0033 33.0013 29.4001 33.2284 28.8519C33.4554 28.3038 33.8399 27.8352 34.3333 27.5056C34.8266 27.1759 35.4067 27 36 27C36.7957 27 37.5587 27.3161 38.1213 27.8787C38.6839 28.4413 39 29.2044 39 30Z" fill="#39B54A"/>
</svg>
