<svg width="48" height="48" viewBox="0 0 48 48" fill="none" xmlns="http://www.w3.org/2000/svg">
<path d="M42.894 12.2105L30.894 6.21046C30.6161 6.07141 30.3097 5.99902 29.999 5.99902C29.6883 5.99902 29.3819 6.07141 29.104 6.21046L18 11.7645L6.894 6.21046C6.58901 6.05805 6.25012 5.98615 5.90951 6.00157C5.56891 6.017 5.23791 6.11924 4.94794 6.29859C4.65797 6.47794 4.41867 6.72845 4.25276 7.02631C4.08685 7.32417 3.99984 7.6595 4 8.00046V34.0005C4 34.7585 4.428 35.4505 5.106 35.7905L17.106 41.7905C17.3839 41.9295 17.6903 42.0019 18.001 42.0019C18.3117 42.0019 18.6181 41.9295 18.896 41.7905L30 36.2365L41.106 41.7885C41.4101 41.9423 41.7488 42.0152 42.0893 42.0002C42.4298 41.9851 42.7606 41.8826 43.05 41.7025C43.64 41.3365 44 40.6945 44 40.0005V14.0005C44 13.2425 43.572 12.5505 42.894 12.2105ZM20 15.2365L28 11.2365V32.7645L20 36.7645V15.2365ZM8 11.2365L16 15.2365V36.7645L8 32.7645V11.2365ZM40 36.7645L32 32.7645V11.2365L40 15.2365V36.7645Z" fill="#39B54A"/>
</svg>
