<svg width="40" height="40" viewBox="0 0 40 40" fill="none" xmlns="http://www.w3.org/2000/svg">
<path d="M31.7049 28.295C30.9243 27.5473 30.1646 26.7781 29.4266 25.9883C28.8066 25.3583 28.4333 24.9 28.4333 24.9L23.7666 22.6716C25.6349 20.5527 26.666 17.825 26.6666 15C26.6666 8.56831 21.4333 3.33331 14.9999 3.33331C8.56659 3.33331 3.33325 8.56831 3.33325 15C3.33325 21.4316 8.56659 26.6666 14.9999 26.6666C17.9383 26.6666 20.6166 25.5666 22.6716 23.7683L24.8999 28.435C24.8999 28.435 25.3583 28.8083 25.9883 29.4283C26.6333 30.0333 27.4816 30.8516 28.2949 31.7066L30.5583 34.0266L31.5649 35.1033L35.0999 31.5683L34.0233 30.5616C33.3916 29.9416 32.5483 29.1183 31.7049 28.295ZM14.9999 23.3333C10.4049 23.3333 6.66659 19.595 6.66659 15C6.66659 10.405 10.4049 6.66665 14.9999 6.66665C19.5949 6.66665 23.3333 10.405 23.3333 15C23.3333 19.595 19.5949 23.3333 14.9999 23.3333Z" fill="#39B54A"/>
</svg>
